<svg width="24" height="24" viewBox="0 0 24 24" fill="none" xmlns="http://www.w3.org/2000/svg">
<path opacity="0.4" d="M7.10999 5.96003L16.13 2.95003C20.18 1.60003 22.38 3.81003 21.04 7.86003L18.03 16.88C16.01 22.95 12.69 22.95 10.67 16.88L9.77999 14.2L7.09999 13.31C1.03999 11.3 1.03999 7.99003 7.10999 5.96003Z" fill="#687AD5"/>
<path d="M12.12 11.6301L15.93 7.81006Z" fill="#687AD5"/>
<path d="M12.12 12.38C11.93 12.38 11.74 12.31 11.59 12.16C11.3 11.87 11.3 11.39 11.59 11.1L15.39 7.28C15.68 6.99 16.16 6.99 16.45 7.28C16.74 7.57 16.74 8.05 16.45 8.34L12.65 12.16C12.5 12.3 12.31 12.38 12.12 12.38Z" fill="#687AD5"/>
</svg>
