<svg width="24" height="24" viewBox="0 0 24 24" fill="none" xmlns="http://www.w3.org/2000/svg">
<path d="M21.04 13.28L20.12 12.38L12.37 20.12L13.3 21.05C14.08 21.83 14.89 22.22 15.69 22.22C16.49 22.22 17.3 21.83 18.08 21.05L21.04 18.09C22.63 16.49 22.63 14.88 21.04 13.28Z" fill="#F64B4B"/>
<path d="M10.69 2.92994C9.11999 1.35994 7.46999 1.35994 5.89999 2.92994L2.92999 5.88994C1.36999 7.45994 1.36999 9.10994 2.92999 10.6799L3.84999 11.5999L11.6 3.84994L10.69 2.92994Z" fill="#F64B4B"/>
<path opacity="0.4" d="M21.81 3.93997C20.5 7.20997 17.51 11.48 14.66 14.27C14.25 11.69 12.19 9.66997 9.59 9.30997C12.39 6.44997 16.69 3.41997 19.97 2.09997C20.55 1.87997 21.13 2.04997 21.49 2.40997C21.87 2.78997 22.05 3.35997 21.81 3.93997Z" fill="#F64B4B"/>
<path d="M14.66 14.2701C14.16 14.7601 13.66 15.2101 13.18 15.5901L11.21 17.1701C10.96 17.3501 10.71 17.5001 10.43 17.6201C10.43 17.4301 10.41 17.2401 10.39 17.0401C10.28 16.2101 9.9 15.4201 9.23 14.7501C8.54 14.0701 7.72 13.6801 6.87 13.5701C6.67 13.5501 6.46 13.5401 6.27 13.5501C6.38 13.2401 6.55 12.9501 6.76 12.7101L8.32 10.7401C8.69 10.2701 9.12 9.79006 9.59 9.31006C12.19 9.67006 14.25 11.6901 14.66 14.2701Z" fill="#F64B4B"/>
<path opacity="0.4" d="M10.43 17.6199C10.43 18.7199 10.01 19.7699 9.20999 20.5599C8.59999 21.1799 7.77999 21.5999 6.77999 21.7199L4.32999 21.9899C2.98999 22.1399 1.83999 20.9899 1.98999 19.6399L2.25999 17.1799C2.49999 14.9899 4.32999 13.5899 6.26999 13.5499C6.45999 13.5399 6.66999 13.5499 6.86999 13.5699C7.71999 13.6799 8.53999 14.0699 9.22999 14.7499C9.89999 15.4199 10.28 16.2099 10.39 17.0399C10.41 17.2399 10.43 17.4299 10.43 17.6199Z" fill="#F64B4B"/>
</svg>
