<svg width="140" height="141" viewBox="0 0 140 141" fill="none" xmlns="http://www.w3.org/2000/svg">
<rect x="17" y="15.7609" width="87.8121" height="63.569" rx="4.89" fill="#263238"/>
<rect x="59.6309" y="12.8822" width="2.55474" height="125.507" rx="1.17" fill="#263238"/>
<path d="M58.1705 135.848H63.6384C64.8209 135.848 65.7796 136.801 65.7796 137.977V138.238C65.7796 138.278 65.7636 138.316 65.7352 138.345C65.7067 138.373 65.6681 138.389 65.6279 138.389H56.1809C56.0972 138.389 56.0293 138.321 56.0293 138.238V137.977C56.0293 136.801 56.9879 135.848 58.1705 135.848V135.848Z" fill="#263238"/>
<rect x="85.2559" y="14.1617" width="7.35176" height="0.456969" fill="#FF7171"/>
<rect x="78.623" y="14.1617" width="2.24688" height="0.456969" fill="#FF7171"/>
<rect x="17.3281" y="15.7609" width="87.8121" height="63.569" rx="4.89" fill="#FF7171"/>
<path opacity="0.7" d="M98.6198 18.0458C100.95 18.0458 102.84 19.9351 102.84 22.2658V72.8251C102.84 75.1557 100.95 77.0451 98.6198 77.0451H23.8425C21.5119 77.0451 19.6225 75.1557 19.6225 72.8251V22.2658C19.6225 19.9351 21.5119 18.0458 23.8425 18.0458L98.6198 18.0458Z" fill="white"/>
<path opacity="0.2" d="M43.8336 46.7848C38.4758 46.286 33.0958 46.0602 27.7148 46.1085C27.7654 38.8427 28.4179 30.9874 28.9922 23.26L44.7893 24.2699C44.1782 33.2859 43.5717 42.3293 43.8336 46.7848Z" fill="black"/>
<path d="M44.1344 46.4603C38.7767 45.9593 33.3967 45.7335 28.0156 45.784C28.0662 38.5136 28.4016 30.9919 28.9759 23.26L45.0947 23.9363C44.4928 32.9523 43.8862 42.0003 44.1344 46.4603Z" fill="white"/>
<path opacity="0.2" d="M65.2928 62.2622L49.1787 62.9613L48.5078 40.1083L64.3095 39.7382L65.2928 62.2622V62.2622Z" fill="black"/>
<path d="M48.5039 40.1158L64.6212 39.4188L65.6059 61.9398L49.4886 62.6368L48.5039 40.1158Z" fill="white"/>
<path opacity="0.2" d="M101.219 61.7184L85.2246 59.621L88.5605 37.001L104.183 39.3681L101.219 61.7184V61.7184Z" fill="black"/>
<path d="M88.5555 37.0063L104.549 39.106L101.583 61.4544L85.5891 59.3547L88.5555 37.0063Z" fill="white"/>
<path opacity="0.2" d="M46.2339 78.2424C43.3116 79.1563 35.7852 79.298 30.1519 79.0192C29.3478 71.9819 29.4305 64.1037 29.6327 56.1708L45.4344 55.9103C45.0852 61.3574 45.3563 71.0497 46.2339 78.2424Z" fill="black"/>
<path d="M46.5529 77.9133C43.626 78.8273 36.0996 78.9644 30.4709 78.6856C29.6728 71.2041 29.3934 63.6768 29.6347 56.157L45.7534 55.563C45.3996 61.0283 45.6707 70.7207 46.5529 77.9133Z" fill="white"/>
<path opacity="0.2" d="M85.8637 44.4998L69.7358 44.8516C69.1936 37.3482 69.3498 29.502 69.5566 22.0032H85.3674C85.1882 29.9773 85.3077 37.5858 85.8637 44.4998Z" fill="black"/>
<path d="M86.1792 44.1616L70.0512 44.5135C69.5121 37.0101 69.3498 29.4975 69.5642 21.9758L85.6921 21.6239C85.5175 29.6483 85.6461 37.2522 86.1792 44.1616Z" fill="white"/>
<path d="M91.7219 133.291L88.1445 132.34L89.4185 123.876L92.996 124.828L91.7219 133.291V133.291Z" fill="#FF8B7B"/>
<path d="M124.814 136.507H121.108L118.223 128.003H121.929L124.814 136.507V136.507Z" fill="#FF8B7B"/>
<path d="M120.613 136.082H125.132C125.283 136.082 125.413 136.187 125.446 136.333L126.18 139.6C126.214 139.761 126.171 139.928 126.065 140.055C125.959 140.181 125.801 140.253 125.635 140.249C124.181 140.226 123.124 140.14 121.291 140.14C120.165 140.14 116.768 140.258 115.217 140.258C113.666 140.258 113.458 138.735 114.095 138.593C116.948 137.976 119.099 137.125 120.013 136.306C120.179 136.162 120.392 136.083 120.613 136.082V136.082Z" fill="#263238"/>
<path d="M88.2831 131.937L92.1882 132.976C92.3345 133.016 92.4338 133.15 92.4283 133.3L92.2806 136.64C92.2756 136.804 92.1945 136.956 92.061 137.053C91.9274 137.149 91.7563 137.179 91.5974 137.134C90.2126 136.736 88.1769 136.109 86.4044 135.638C84.3318 135.089 82.5131 134.723 80.0851 134.078C78.6172 133.689 78.6079 132.106 79.2588 132.138C82.2223 132.276 84.5257 132.82 87.346 131.983C87.6479 131.881 87.9726 131.865 88.2831 131.937V131.937Z" fill="#263238"/>
<path d="M107.44 27.0095C106.217 28.5329 104.948 30.1707 103.748 31.7764C102.548 33.3822 101.394 35.0428 100.332 36.7081C99.801 37.5361 99.3163 38.3779 98.8501 39.215L97.5761 41.6992L97.4699 41.9233C97.4699 41.9462 97.4422 41.9645 97.4376 41.9599C97.4314 41.9052 97.4314 41.85 97.4376 41.7952C97.4371 41.6537 97.4216 41.5127 97.3914 41.3743C97.3752 41.2982 97.3536 41.2233 97.3268 41.1502C97.3268 41.1044 97.2945 41.0587 97.276 41.0129C97.2531 40.9485 97.2253 40.8858 97.1929 40.8254C97.1105 40.6718 97.0114 40.5276 96.8975 40.3953C96.7368 40.2147 96.5483 40.0603 96.339 39.9379C96.1268 39.8162 95.8961 39.7297 95.6558 39.6817C95.4763 39.6487 95.2935 39.6365 95.1111 39.6451C94.9038 39.6547 94.6996 39.698 94.5064 39.7732C94.371 39.8195 94.2434 39.8858 94.1279 39.9699C94.0125 40.0568 94.0171 40.0705 94.0125 40.0797C94.0079 40.0888 94.0402 40.0797 94.0679 40.0797C94.2318 39.969 94.3862 39.8451 94.5295 39.7091C94.7049 39.5582 94.8803 39.3935 95.0557 39.2196C95.7712 38.538 96.5098 37.7877 97.2806 37.0878L99.6117 38.5883C99.2379 39.6174 98.7874 40.6174 98.2639 41.5802C97.9788 42.1291 97.6419 42.6499 97.2576 43.1356C97.1865 43.2233 97.111 43.3072 97.0314 43.3873C96.9037 43.5198 96.763 43.6393 96.6113 43.7441C96.4394 43.8624 96.2533 43.9592 96.0574 44.0323C95.8321 44.1152 95.5957 44.1646 95.3558 44.1787C95.1579 44.188 94.9596 44.1742 94.7649 44.1375C94.5079 44.0877 94.2612 43.9949 94.0356 43.863C93.8123 43.7338 93.6113 43.5701 93.4401 43.3781C93.3162 43.2375 93.2079 43.0841 93.117 42.9206C93.0847 42.852 93.0478 42.7788 93.0201 42.7102L92.9601 42.5501C92.9231 42.4311 92.9047 42.3579 92.8862 42.2756C92.8446 42.0739 92.826 41.8683 92.8308 41.6626C92.8336 41.4787 92.849 41.2953 92.877 41.1136C92.877 40.9809 92.9139 40.8757 92.9324 40.775C92.9739 40.5738 93.0108 40.4091 93.0478 40.2489C93.2001 39.6222 93.3617 39.0961 93.5463 38.5654C93.7309 38.0347 93.971 37.5041 94.2064 36.9963C94.668 35.9715 95.1757 34.9834 95.7112 34.0318C96.7737 32.1429 97.9355 30.3104 99.1917 28.5421C99.8102 27.6683 100.447 26.8036 101.103 25.9573C101.758 25.111 102.423 24.2921 103.157 23.4412L107.44 27.0095Z" fill="#FF8B7B"/>
<path d="M109.453 24.3149C110.247 27.7323 102.672 36.4839 102.672 36.4839L95.877 31.5523C97.3854 28.7169 99.196 26.0498 101.278 23.5967C104.389 20.1107 108.58 20.559 109.453 24.3149Z" fill="#FF7171"/>
<path opacity="0.2" d="M109.453 24.3149C110.247 27.7323 102.672 36.4839 102.672 36.4839L95.877 31.5523C97.3854 28.7169 99.196 26.0498 101.278 23.5967C104.389 20.1107 108.58 20.559 109.453 24.3149Z" fill="black"/>
<path opacity="0.2" d="M89.4218 123.876L88.7617 128.241L92.3437 129.192L92.9992 124.828L89.4218 123.876V123.876Z" fill="black"/>
<path opacity="0.2" d="M121.929 128.007H118.223L119.714 132.39H123.42L121.929 128.007V128.007Z" fill="black"/>
<path d="M126.026 23.8026C121.202 37.4904 121.115 52.3127 120.575 55.2864C117.694 54.9067 106.847 53.4564 100.934 52.665C99.6042 31.6484 105.43 21.2362 105.43 21.2362C105.43 21.2362 106.713 21.0669 108.448 20.9937C108.993 20.9937 109.579 20.9571 110.189 20.9617C110.526 20.9617 110.867 20.9617 111.213 20.9846C114.017 21.204 116.805 21.5828 119.564 22.1191C120.085 22.2152 120.616 22.325 121.129 22.4394C121.641 22.5537 122.052 22.6635 122.513 22.7779C124.494 23.2765 126.026 23.8026 126.026 23.8026Z" fill="#FF7171"/>
<path opacity="0.2" d="M126.026 23.8026C121.202 37.4904 121.115 52.3127 120.575 55.2864C117.694 54.9067 106.847 53.4564 100.934 52.665C99.6042 31.6484 105.43 21.2362 105.43 21.2362C105.43 21.2362 106.713 21.0669 108.448 20.9937C108.993 20.9937 109.579 20.9571 110.189 20.9617C110.526 20.9617 110.867 20.9617 111.213 20.9846C114.017 21.204 116.805 21.5828 119.564 22.1191C120.085 22.2152 120.616 22.325 121.129 22.4394C121.641 22.5537 122.052 22.6635 122.513 22.7779C124.494 23.2765 126.026 23.8026 126.026 23.8026Z" fill="black"/>
<path opacity="0.2" d="M121.51 30.1067C120.73 32.1699 121.339 37.8838 122.193 39.8327C122.498 37.7923 122.872 35.6513 123.343 33.4554L121.51 30.1067Z" fill="black"/>
<path d="M97.3164 36.8225L100.252 34.0776L102.163 38.3688C101.078 39.4709 99.3964 39.7485 98.0088 39.055L97.3164 36.8225Z" fill="#FF8B7B"/>
<path d="M102.41 32.6504L103.877 36.4475L102.165 38.346L100.254 34.0549L102.41 32.6504V32.6504Z" fill="#FF8B7B"/>
<path d="M120.004 12.6722C119.113 15.2661 117.927 20.0743 119.566 22.1009C117.908 23.3452 115.771 24.7497 112.568 24.434C109.364 24.1184 110.218 22.0185 111.215 20.9846C114.308 20.6781 114.529 18.4639 114.289 16.3229L120.004 12.6722Z" fill="#FF8B7B"/>
<path d="M110.649 20.2891C110.649 19.5663 113.65 18.9579 113.765 19.6441C113.881 20.3303 112.842 20.5591 113.17 21.474C113.497 22.389 116.521 22.4805 117.73 21.1858C118.534 20.3212 118.787 19.452 119.808 20.0238C120.828 20.5957 122.056 21.3962 121.382 22.6543C120.708 23.9124 116.904 26.886 113.442 26.122C109.98 25.358 109.015 23.5144 109.689 22.7138C110.276 22.0357 110.614 21.1814 110.649 20.2891Z" fill="#FF7171"/>
<path opacity="0.2" d="M117.671 14.1637L114.287 16.323C114.353 16.8204 114.373 17.3226 114.347 17.8235C115.723 17.7673 116.979 17.0323 117.694 15.8655C118.081 15.129 117.952 14.2918 117.671 14.1637Z" fill="black"/>
<path d="M120.562 8.09739C120.234 11.7298 120.225 13.8708 118.319 15.687C115.452 18.4318 110.97 16.6019 110.199 12.9695C109.507 9.68027 110.162 4.27744 113.79 2.95075C115.416 2.33719 117.246 2.60224 118.626 3.65109C120.006 4.69994 120.739 6.38271 120.562 8.09739Z" fill="#FF8B7B"/>
<path d="M120.846 5.19238C118.15 4.99109 117.924 9.62993 120.154 11.6245C122.849 10.5769 126.616 5.59954 120.846 5.19238Z" fill="#263238"/>
<path d="M118.178 5.91521C116.599 3.44482 113.562 7.36084 112.062 4.66171C111.162 3.03766 109.624 4.79896 108.687 3.82453C107.75 2.85009 109.2 0.233314 110.178 0C109.629 0.590148 109.523 2.69913 111.171 1.65607C112.819 0.613022 114 -0.466629 116.018 1.28552C118.035 3.03766 120.144 -0.484928 121.995 2.20047C123.62 4.53362 120.047 8.85222 118.178 5.91521Z" fill="#263238"/>
<path d="M121.229 5.53091C120.796 5.52933 120.366 5.45985 119.955 5.32505C119.864 5.29725 119.814 5.20201 119.842 5.11232C119.87 5.02262 119.966 4.97244 120.056 5.00024C121.238 5.37079 122.387 5.17408 122.914 4.51531C123.324 4.00293 123.292 3.29841 122.835 2.53442C122.787 2.45357 122.814 2.34911 122.895 2.30111C122.977 2.2531 123.082 2.27973 123.131 2.36058C123.661 3.23894 123.68 4.10358 123.186 4.72575C122.692 5.27645 121.971 5.57304 121.229 5.53091Z" fill="#263238"/>
<path d="M122.105 12.1552C121.589 12.9152 120.791 13.4428 119.885 13.6237C118.68 13.8479 118.182 12.7591 118.602 11.684C118.98 10.7187 120.065 9.43776 121.233 9.69395C122.401 9.95014 122.728 11.2128 122.105 12.1552Z" fill="#FF8B7B"/>
<path d="M87.4395 126.937L93.4957 128.547C93.4957 128.547 99.261 107.384 101.084 96.0661C101.638 92.6304 102.875 87.8726 104.371 82.7992C106.254 76.3945 108.548 69.4957 110.409 64.0929C112.375 58.4018 113.848 54.3806 113.848 54.3806L100.923 52.6559C100.923 52.6559 91.0861 82.543 89.9783 93.6963C88.8381 105.303 87.4395 126.937 87.4395 126.937Z" fill="#263238"/>
<path opacity="0.2" d="M104.37 82.8084C106.253 76.4037 108.547 69.5049 110.408 64.1021L109.263 61.1422C105.787 64.7288 104.158 76.3991 104.37 82.8084Z" fill="black"/>
<path d="M107.901 53.5984C107.901 53.5984 107.264 85.0592 108.132 95.7825C109.087 107.531 117.969 131.539 117.969 131.539H124.754C124.754 131.539 120.226 109.58 118.841 98.1431C117.258 85.1507 120.577 55.2773 120.577 55.2773L107.901 53.5984Z" fill="#263238"/>
<path d="M117.158 131.685H125.149V129.32L116.217 129.165L117.158 131.685V131.685Z" fill="#FF7171"/>
<path d="M86.6406 126.873L93.8601 128.794L94.4878 126.484L86.853 124.329L86.6406 126.873V126.873Z" fill="#FF7171"/>
<path d="M114.966 8.962C114.966 9.25479 114.796 9.49268 114.597 9.48811C114.399 9.48353 114.251 9.23649 114.26 8.93913C114.269 8.64177 114.436 8.40846 114.629 8.41303C114.823 8.4176 114.976 8.66464 114.966 8.962Z" fill="#263238"/>
<path d="M111.594 8.85227C111.594 9.14963 111.418 9.38294 111.224 9.37837C111.031 9.37379 110.878 9.12676 110.883 8.83397C110.888 8.54118 111.058 8.29872 111.252 8.30787C111.446 8.31702 111.598 8.56863 111.594 8.85227Z" fill="#263238"/>
<path d="M112.66 9.04431C112.28 9.93912 111.775 10.7768 111.16 11.533C111.565 11.8395 112.086 11.9519 112.582 11.8395L112.66 9.04431Z" fill="#FF5652"/>
<path d="M113.818 12.6676C114.492 12.6109 115.112 12.2796 115.531 11.7527C115.562 11.7192 115.562 11.6672 115.531 11.6337C115.511 11.6198 115.487 11.6144 115.463 11.6188C115.44 11.6231 115.419 11.6367 115.406 11.6566C114.922 12.2443 114.18 12.5631 113.417 12.5121C113.392 12.5108 113.369 12.5194 113.352 12.5359C113.334 12.5523 113.324 12.5751 113.324 12.599C113.324 12.6453 113.361 12.6835 113.407 12.6859C113.545 12.6901 113.682 12.684 113.818 12.6676Z" fill="#263238"/>
<path d="M116.04 7.90988C116.07 7.9069 116.098 7.89583 116.123 7.87786C116.161 7.85117 116.186 7.81063 116.194 7.76516C116.202 7.71968 116.191 7.673 116.164 7.63539C115.846 7.17154 115.322 6.88862 114.756 6.87598C114.71 6.87834 114.666 6.89896 114.635 6.9333C114.604 6.96763 114.588 7.01285 114.59 7.05897C114.591 7.10469 114.611 7.148 114.645 7.17902C114.679 7.21005 114.724 7.22615 114.77 7.22366V7.22366C115.218 7.23845 115.63 7.46683 115.878 7.83668C115.915 7.88755 115.976 7.91535 116.04 7.90988V7.90988Z" fill="#263238"/>
<path d="M110.185 7.67205C110.243 7.66675 110.293 7.63208 110.319 7.58055C110.513 7.17917 110.891 6.89608 111.334 6.82114C111.42 6.80119 111.478 6.72067 111.469 6.63341C111.459 6.54614 111.386 6.4795 111.297 6.47803C110.738 6.56399 110.257 6.9161 110.009 7.42043C109.987 7.46088 109.982 7.50867 109.996 7.55272C110.01 7.59677 110.042 7.63327 110.083 7.65375C110.114 7.67102 110.15 7.67747 110.185 7.67205Z" fill="#263238"/>
<path fill-rule="evenodd" clip-rule="evenodd" d="M120.36 136.637C120.043 136.72 119.718 136.767 119.391 136.777C119.137 136.793 118.886 136.722 118.675 136.574C118.544 136.454 118.477 136.274 118.495 136.092C118.497 135.983 118.555 135.883 118.647 135.832C119.042 135.622 120.182 136.339 120.373 136.459C120.379 136.463 120.384 136.466 120.388 136.468C120.415 136.489 120.43 136.524 120.425 136.56C120.42 136.597 120.395 136.627 120.36 136.637ZM120.082 136.512C120.09 136.51 120.098 136.508 120.105 136.507V136.526C120.098 136.521 120.09 136.516 120.082 136.512ZM118.79 136.435C118.99 136.611 119.461 136.636 120.082 136.512C119.6 136.203 118.952 135.882 118.725 135.996C118.688 136.019 118.667 136.062 118.67 136.107C118.652 136.231 118.697 136.355 118.79 136.435Z" fill="#FF7171"/>
<path fill-rule="evenodd" clip-rule="evenodd" d="M120.391 136.594C120.375 136.599 120.357 136.599 120.341 136.594L120.299 136.599C119.916 136.393 119.177 135.588 119.256 135.176C119.282 135.045 119.398 134.951 119.533 134.952C119.668 134.932 119.804 134.972 119.907 135.061C120.336 135.409 120.428 136.47 120.428 136.516C120.433 136.547 120.418 136.578 120.391 136.594ZM119.792 135.194C119.737 135.144 119.664 135.116 119.589 135.117H119.552C119.423 135.13 119.423 135.185 119.423 135.208C119.377 135.428 119.848 136.054 120.231 136.343C120.206 135.925 120.053 135.524 119.792 135.194Z" fill="#FF7171"/>
<path fill-rule="evenodd" clip-rule="evenodd" d="M87.8737 132.28C87.8607 132.31 87.8326 132.331 87.7998 132.335L87.786 132.34C87.1767 132.298 86.115 132.175 85.8149 131.717C85.7245 131.582 85.7073 131.411 85.7688 131.26C85.7977 131.168 85.8728 131.097 85.9673 131.072C86.4658 130.949 87.7121 132.056 87.8506 132.184C87.8777 132.208 87.8869 132.246 87.8737 132.28ZM87.5356 132.152C87.0371 131.717 86.3401 131.237 86.0447 131.237L86.0077 131.255C85.9701 131.265 85.9415 131.295 85.9339 131.333C85.8914 131.43 85.9018 131.542 85.9616 131.63C86.1278 131.882 86.7094 132.069 87.5356 132.152Z" fill="#FF7171"/>
<path fill-rule="evenodd" clip-rule="evenodd" d="M87.8212 132.335H87.7981C87.7756 132.337 87.7531 132.332 87.7335 132.321C87.3411 132.01 86.7041 131.022 86.8795 130.638C86.9211 130.546 87.018 130.45 87.258 130.487C87.4342 130.513 87.5914 130.611 87.6919 130.757C88.0117 131.197 87.9056 132.037 87.881 132.231C87.8783 132.253 87.8766 132.267 87.8766 132.271C87.8705 132.3 87.8496 132.325 87.8212 132.335ZM87.2293 130.642H87.1369C87.0715 130.646 87.0496 130.675 87.0422 130.685C87.0412 130.686 87.0405 130.687 87.04 130.688C86.9338 130.926 87.3539 131.681 87.7232 132.06C87.7902 131.647 87.7291 131.222 87.5478 130.843C87.4754 130.734 87.3595 130.661 87.2293 130.642Z" fill="#FF7171"/>
<path d="M126.992 26.639C127.528 29.0225 127.98 31.3922 128.377 33.7894C128.774 36.1866 129.129 38.5884 129.406 41.0222L129.503 41.9371L129.559 42.5044C129.601 42.9487 129.56 43.3969 129.439 43.8265C129.274 44.4238 128.943 44.9629 128.483 45.382C128.099 45.7243 127.641 45.9761 127.145 46.1185C126.567 46.2798 125.963 46.328 125.367 46.2603C124.593 46.1759 123.831 46.004 123.096 45.7479C122.436 45.5238 121.827 45.2905 121.25 45.0114C120.092 44.4871 118.962 43.9022 117.866 43.2593C116.782 42.6234 115.743 41.9692 114.709 41.2235L116.025 38.7943C118.263 39.5628 120.544 40.3863 122.732 40.981C123.276 41.132 123.816 41.2601 124.329 41.3516C124.757 41.4485 125.196 41.4946 125.635 41.4888C125.769 41.4888 125.875 41.4293 125.663 41.4659C125.456 41.5188 125.266 41.6245 125.113 41.7724C124.874 41.983 124.698 42.2554 124.606 42.5593C124.567 42.6982 124.544 42.8408 124.536 42.9848C124.536 43.0625 124.536 42.939 124.513 42.875L124.472 42.6554L124.306 41.7862C123.853 39.4622 123.392 37.1306 122.921 34.7913C122.459 32.4536 121.97 30.1022 121.536 27.7736L126.992 26.639Z" fill="#FF8B7B"/>
<path d="M127.267 24.7039C129.686 27.2703 129.903 35.1527 129.903 35.1527L122.901 38.4237C122.901 38.4237 120.629 33.4143 120.556 28.8806C120.482 23.7386 124.844 22.1191 127.267 24.7039Z" fill="#FF7171"/>
<path opacity="0.2" d="M127.267 24.7039C129.686 27.2703 129.903 35.1527 129.903 35.1527L122.901 38.4237C122.901 38.4237 120.629 33.4143 120.556 28.8806C120.482 23.7386 124.844 22.1191 127.267 24.7039Z" fill="black"/>
<path d="M102.163 34.2836C102.123 34.2832 102.084 34.2739 102.048 34.2561C101.938 34.1908 101.901 34.0506 101.965 33.9405L105.657 27.6227C105.727 27.5278 105.858 27.5005 105.96 27.5595C106.062 27.6184 106.103 27.7445 106.054 27.8514L102.385 34.1692C102.339 34.2462 102.253 34.2906 102.163 34.2836Z" fill="#263238"/>
<path d="M113.619 51.8552L99.6643 49.8423C99.0754 49.7536 98.6217 49.2813 98.5611 48.694L97.6379 29.6034C97.624 29.3453 97.7333 29.0958 97.9328 28.9294C98.1324 28.7631 98.3992 28.6993 98.6534 28.7571L112.608 30.7654C113.197 30.8587 113.65 31.3306 113.715 31.9183L114.616 51.0089C114.628 51.263 114.521 51.5085 114.326 51.674C114.131 51.8395 113.87 51.9064 113.619 51.8552V51.8552Z" fill="white"/>
<path d="M113.305 52.0474L99.3512 50.0253C98.7613 49.937 98.306 49.4651 98.2434 48.8771L97.3432 29.7865C97.3278 29.5288 97.4359 29.279 97.6349 29.1124C97.8338 28.9458 98.1004 28.882 98.3542 28.9401L112.308 30.9484C112.9 31.0372 113.356 31.5115 113.416 32.1013L114.339 51.1873C114.362 51.4524 114.253 51.7118 114.047 51.8828C113.842 52.0538 113.565 52.1152 113.305 52.0474V52.0474Z" fill="#263238"/>
<path d="M116.292 38.8629L113.01 37.033L112.627 41.7084C112.627 41.7084 115.766 42.6508 116.454 41.0542L116.292 38.8629Z" fill="#FF8B7B"/>
<path d="M109.355 37.8702L109.817 41.3654L112.628 41.713L113.011 37.0376L109.355 37.8702V37.8702Z" fill="#FF8B7B"/>
</svg>
