<svg width="140" height="140" viewBox="0 0 140 140" fill="none" xmlns="http://www.w3.org/2000/svg">
<rect y="64.8679" width="139.167" height="5.00348" fill="#407BFF"/>
<rect opacity="0.3" y="64.8679" width="37.2464" height="5.00348" fill="white"/>
<path d="M37.8416 69.8713H34.6016L36.2974 132.581H37.8416H39.3859L41.0858 69.8713H37.8416V69.8713Z" fill="#407BFF"/>
<path opacity="0.3" d="M36.2969 132.581H37.8411V71.2177L34.6543 71.8005L36.2969 132.581V132.581Z" fill="white"/>
<path d="M7.13069 69.8713H3.89062L5.58644 132.581H7.13069H8.67494L10.3708 69.8713H7.13069V69.8713Z" fill="#407BFF"/>
<path opacity="0.3" d="M5.58806 132.581H7.13232V71.2177L3.94141 71.8005L5.58806 132.581V132.581Z" fill="white"/>
<path d="M132.035 69.8713H128.795L130.491 132.581H132.035H133.579L135.279 69.8713H132.035V69.8713Z" fill="#407BFF"/>
<path opacity="0.3" d="M130.492 132.581H132.036V71.2177L128.85 71.8005L130.492 132.581V132.581Z" fill="white"/>
<path d="M101.324 69.8713H98.084L99.7798 132.581H101.324H102.868L104.564 69.8713H101.324V69.8713Z" fill="#407BFF"/>
<path opacity="0.3" d="M99.7832 132.581H101.327V71.2177L98.1406 71.8005L99.7832 132.581V132.581Z" fill="white"/>
<path d="M66.0594 38.0813H32.9706C32.426 38.0597 31.9038 38.3005 31.566 38.7292C31.2281 39.1578 31.1153 39.7226 31.2625 40.2485L35.67 61.3255C35.9614 62.5504 37.028 63.4332 38.2833 63.4886H71.3967C71.9404 63.5098 72.4616 63.2695 72.7992 62.8419C73.1369 62.4144 73.2504 61.8509 73.1048 61.3255L68.6933 40.2485C68.4013 39.015 67.3237 38.1283 66.0594 38.0813V38.0813Z" fill="#263238"/>
<path d="M38.5679 62.2861C37.7213 62.2288 37.0073 61.6326 36.7984 60.8085L32.3909 39.7314C32.3145 39.4489 32.3703 39.147 32.5425 38.9105C32.7211 38.7081 32.9818 38.5979 33.2511 38.6109H66.3645C67.2112 38.6682 67.9251 39.2644 68.134 40.0885L72.5415 61.1656C72.6179 61.4481 72.5622 61.75 72.39 61.9865C72.2124 62.1904 71.951 62.3009 71.6813 62.2861H38.5679Z" fill="white"/>
<path opacity="0.4" d="M63.5532 60.5991L59.3751 40.6139C59.3276 40.3744 59.3889 40.1261 59.5426 39.9364C59.6962 39.7468 59.9261 39.6356 60.1698 39.6329H65.5439C65.9277 39.6359 66.258 39.9054 66.3386 40.2815L70.5167 60.2502C70.5642 60.4898 70.5029 60.7381 70.3492 60.9277C70.1956 61.1173 69.9657 61.2286 69.722 61.2312H64.3479C63.969 61.23 63.6403 60.9686 63.5532 60.5991V60.5991Z" fill="#407BFF"/>
<path d="M35.149 41.3814L34.9688 40.5154H41.6045L41.7848 41.3814H35.149V41.3814Z" fill="#407BFF"/>
<path d="M38.2134 43.5321L38.0332 42.666H49.6622L49.8465 43.5321H38.2134V43.5321Z" fill="#EBEBEB"/>
<path d="M38.8289 45.6791L38.6445 44.813H51.6826L51.8628 45.6791H38.8289V45.6791Z" fill="#EBEBEB"/>
<path d="M39.4361 47.8297L39.2559 46.9636H49.7502L49.9346 47.8297H39.4361V47.8297Z" fill="#EBEBEB"/>
<path d="M37.1687 51.3144L36.9844 50.4484H41.1829L41.3632 51.3144H37.1687V51.3144Z" fill="#407BFF"/>
<path d="M40.2271 53.4612L40.0469 52.5951H45.1589L45.3432 53.4612H40.2271V53.4612Z" fill="#EBEBEB"/>
<path d="M46.5691 53.4612L46.3848 52.5951H51.5009L51.6811 53.4612H46.5691V53.4612Z" fill="#EBEBEB"/>
<path d="M40.8404 55.6119L40.6602 54.7458H57.946L58.1262 55.6119H40.8404V55.6119Z" fill="#EBEBEB"/>
<path d="M41.4537 57.7586L41.2734 56.8926H54.4549L54.6351 57.7586H41.4537V57.7586Z" fill="#EBEBEB"/>
<path d="M81.5192 63.3616H37.9524C36.7646 63.3616 35.9945 64.0388 36.2443 64.868H84.1326C83.8868 64.0388 82.7071 63.3616 81.5192 63.3616Z" fill="#263238"/>
<path opacity="0.1" d="M23.6327 32.7536L19.4505 12.7807C19.4043 12.5418 19.4663 12.2947 19.6198 12.106C19.7732 11.9174 20.0023 11.8067 20.2451 11.8038H54.0794C54.462 11.8064 54.7918 12.0739 54.8741 12.4483L59.0563 32.4047C59.1038 32.6443 59.0424 32.8926 58.8888 33.0822C58.7352 33.2718 58.5053 33.3831 58.2616 33.3857H24.4273C24.0484 33.3845 23.7198 33.1231 23.6327 32.7536Z" fill="#407BFF"/>
<path d="M35.6609 12.4607H28.5582L28.3984 11.6931H35.5012L35.6609 12.4607V12.4607Z" fill="#407BFF"/>
<path opacity="0.4" d="M34.5029 13.6838H31.6519L31.4922 12.9163H34.3431L34.5029 13.6838V13.6838Z" fill="#407BFF"/>
<path opacity="0.4" d="M39.252 13.6838H34.8609L34.7012 12.9163H39.0923L39.252 13.6838V13.6838Z" fill="#407BFF"/>
<path opacity="0.4" d="M41.161 14.9027H31.9078L31.748 14.1351H41.0054L41.161 14.9027V14.9027Z" fill="#407BFF"/>
<path opacity="0.4" d="M39.9873 16.126H32.1637L32.0039 15.3584H39.8276L39.9873 16.126V16.126Z" fill="#407BFF"/>
<path opacity="0.4" d="M45.1762 29.1006H40.1953L40.3551 29.864H45.336L45.1762 29.1006V29.1006Z" fill="#407BFF"/>
<path d="M38.9687 27.4258H31.6734L31.5137 26.6582H38.8089L38.9687 27.4258V27.4258Z" fill="#407BFF"/>
<path opacity="0.4" d="M41.9004 30.3196H35.1172L35.2769 31.0871H42.0602L41.9004 30.3196V30.3196Z" fill="#407BFF"/>
<path opacity="0.4" d="M39.8423 29.1006H34.8613L35.0211 29.864H40.002L39.8423 29.1006V29.1006Z" fill="#407BFF"/>
<path opacity="0.4" d="M44.5693 27.8773H34.6074L34.7672 28.6449H44.729L44.5693 27.8773V27.8773Z" fill="#407BFF"/>
<path d="M35.4152 6.76345H27.3785L27.2188 6H35.2554L35.4152 6.76345V6.76345Z" fill="#407BFF"/>
<path opacity="0.4" d="M39.3797 9.66125H30.5156L30.6754 10.4288H39.5354L39.3797 9.66125V9.66125Z" fill="#407BFF"/>
<path opacity="0.4" d="M37.6061 8.44226H30.2617L30.4215 9.20571H37.7659L37.6061 8.44226V8.44226Z" fill="#407BFF"/>
<path opacity="0.4" d="M38.0975 7.21899H30.0117L30.1715 7.98655H38.2573L38.0975 7.21899V7.21899Z" fill="#407BFF"/>
<path d="M35.3192 18.1125H29.732L29.5723 17.345H35.1594L35.3192 18.1125V18.1125Z" fill="#407BFF"/>
<path opacity="0.4" d="M44.094 21.0062H33.1777L33.3375 21.7738H44.2497L44.094 21.0062V21.0062Z" fill="#407BFF"/>
<path opacity="0.4" d="M37.4499 19.7872H32.9277L33.0875 20.5548H37.6096L37.4499 19.7872V19.7872Z" fill="#407BFF"/>
<path opacity="0.4" d="M42.3561 19.7872H37.834L37.9937 20.5548H42.5159L42.3561 19.7872V19.7872Z" fill="#407BFF"/>
<path opacity="0.4" d="M42.6337 18.564H32.6719L32.8316 19.3315H42.7894L42.6337 18.564V18.564Z" fill="#407BFF"/>
<path opacity="0.4" d="M42.6091 24.6718H33.9375L34.0973 25.4352H42.7688L42.6091 24.6718V24.6718Z" fill="#407BFF"/>
<path opacity="0.4" d="M36.2107 23.4486H33.6875L33.8473 24.2162H36.3664L36.2107 23.4486V23.4486Z" fill="#407BFF"/>
<path opacity="0.4" d="M40.1552 23.4486H36.5547L36.7144 24.2162H40.315L40.1552 23.4486V23.4486Z" fill="#407BFF"/>
<path opacity="0.4" d="M43.3935 22.2295H33.4316L33.5914 22.9929H43.5533L43.3935 22.2295V22.2295Z" fill="#407BFF"/>
<path opacity="0.4" d="M51.2392 22.0243H47.6715L47.5117 21.2567H51.0836L51.2392 22.0243V22.0243Z" fill="#407BFF"/>
<path opacity="0.4" d="M57.1783 22.0243H51.6812L51.5215 21.2567H57.0185L57.1783 22.0243V22.0243Z" fill="#407BFF"/>
<path opacity="0.4" d="M59.5154 23.2473H47.9273L47.7676 22.4797H59.3556L59.5154 23.2473V23.2473Z" fill="#407BFF"/>
<path opacity="0.4" d="M57.9732 24.4665H48.1793L48.0195 23.699H57.8135L57.9732 24.4665V24.4665Z" fill="#407BFF"/>
<path opacity="0.4" d="M62.3582 17.1683H51.2617L51.4215 17.9318H62.518L62.3582 17.1683V17.1683Z" fill="#407BFF"/>
<path opacity="0.4" d="M60.2076 15.9454H51.0117L51.1715 16.713H60.3633L60.2076 15.9454V15.9454Z" fill="#407BFF"/>
<path d="M58.5437 14.7262H48.418L48.5777 15.4896H58.7034L58.5437 14.7262V14.7262Z" fill="#407BFF"/>
<path opacity="0.4" d="M62.8601 29.3508H49.1953L49.3551 30.1184H63.0199L62.8601 29.3508V29.3508Z" fill="#407BFF"/>
<path opacity="0.4" d="M54.6023 28.1318H48.9414L49.1012 28.8953H54.7621L54.6023 28.1318V28.1318Z" fill="#407BFF"/>
<path opacity="0.4" d="M60.7468 28.1318H55.0859L55.2457 28.8953H60.9066L60.7468 28.1318V28.1318Z" fill="#407BFF"/>
<path opacity="0.4" d="M61.1543 26.9086H48.6855L48.8453 27.6761H61.314L61.1543 26.9086V26.9086Z" fill="#407BFF"/>
<path opacity="0.4" d="M60.8119 33.0122H49.957L50.1168 33.7798H60.9716L60.8119 33.0122V33.0122Z" fill="#407BFF"/>
<path opacity="0.4" d="M52.8593 31.7933H49.7012L49.8609 32.5609H53.0191L52.8593 31.7933V31.7933Z" fill="#407BFF"/>
<path opacity="0.4" d="M57.8007 31.7933H53.2949L53.4547 32.5609H57.9605L57.8007 31.7933V31.7933Z" fill="#407BFF"/>
<path opacity="0.4" d="M61.924 30.5701H49.4512L49.6109 31.3376H62.0796L61.924 30.5701V30.5701Z" fill="#407BFF"/>
<path opacity="0.4" d="M28.7083 33.9603H20.2129L20.3726 34.7279H28.8681L28.7083 33.9603V33.9603Z" fill="#407BFF"/>
<path opacity="0.4" d="M26.1994 32.7412H19.9609L20.1207 33.5047H26.355L26.1994 32.7412V32.7412Z" fill="#407BFF"/>
<path opacity="0.4" d="M32.8711 32.7412H26.6367L26.7965 33.5047H33.0349L32.8711 32.7412V32.7412Z" fill="#407BFF"/>
<path opacity="0.4" d="M32.1798 31.5182H19.707L19.8668 32.2857H32.3355L32.1798 31.5182V31.5182Z" fill="#407BFF"/>
<path d="M127.57 56.8926H122.311L122.925 64.8678H126.956L127.57 56.8926V56.8926Z" fill="#407BFF"/>
<path opacity="0.4" d="M127.57 56.8926H122.311L122.925 64.8678H126.956L127.57 56.8926V56.8926Z" fill="white"/>
<path d="M12.9536 51.3556H20.5151L17.9346 64.8679H10.373L12.9536 51.3556V51.3556Z" fill="#263238"/>
<path d="M22.581 47.7354H11.9023L14.8925 64.8679H25.5712L22.581 47.7354V47.7354Z" fill="#407BFF"/>
<path d="M11.2734 47.7354H11.9042L14.8944 64.8679H14.2636L11.2734 47.7354V47.7354Z" fill="#407BFF"/>
<path opacity="0.3" d="M11.2734 47.7354H11.9042L14.8944 64.8679H14.2636L11.2734 47.7354V47.7354Z" fill="black"/>
<path d="M16.4293 63.0332L14.0781 49.566H21.0498L23.3969 63.0332H16.4293V63.0332Z" fill="white"/>
<path opacity="0.6" d="M23.0678 63.0332L20.7207 49.566H21.0525L23.3996 63.0332H23.0678V63.0332Z" fill="#407BFF"/>
<path d="M75.8247 26.1468C75.9764 26.4763 75.9272 26.8264 75.7098 26.9252C75.4925 27.0241 75.1973 26.8387 75.0456 26.5133C74.8939 26.188 74.9472 25.8338 75.1604 25.7349C75.3736 25.6361 75.6729 25.8008 75.8247 26.1468Z" fill="#263238"/>
<path d="M75.9562 26.7974C75.9562 26.7974 76.0874 29.0462 75.6855 30.3477C76.5056 30.6236 77.3912 29.9358 77.3912 29.9358L75.9562 26.7974Z" fill="#FF5652"/>
<path d="M75.8674 23.4242C75.8325 23.4531 75.7895 23.4704 75.7444 23.4736C75.2031 23.488 74.7014 23.7621 74.3954 24.2108C74.3587 24.2798 74.2875 24.3233 74.2096 24.3241C74.1318 24.3249 74.0597 24.2831 74.0215 24.2149C73.9833 24.1467 73.9852 24.0631 74.0264 23.9967C74.4033 23.4219 75.0349 23.067 75.7198 23.0453C75.8117 23.0401 75.8965 23.0949 75.9301 23.1811C75.9636 23.2672 75.9383 23.3652 75.8674 23.4242Z" fill="#263238"/>
<path d="M87.8984 25.6359C89.1654 30.0429 90.5799 33.4614 92.3061 35.4137C92.3061 35.4137 92.3389 38.8775 86.4634 40.525C80.0015 42.3372 82.478 38.1691 82.478 38.1691C85.7581 36.3363 85.4465 33.5685 82.9782 32.5141L87.8984 25.6359Z" fill="#FF8B7B"/>
<path d="M93.6779 34.5694C93.5631 32.959 93.4114 31.1221 92.4232 31.0727C91.3326 31.0232 85.0183 33.8569 83.6694 35.8545C82.3204 37.852 84.9568 39.8084 84.9568 39.8084L93.6779 34.5694Z" fill="#263238"/>
<path d="M80.754 59.508L75.3008 59.3268L75.3992 63.915C75.3992 63.915 80.1554 63.4208 80.3645 62.1646L80.754 59.508Z" fill="#FF8B7B"/>
<path d="M72.4178 61.58L71.8438 63.9276L75.3986 63.9194L75.3002 59.3312L72.4178 61.58V61.58Z" fill="#FF8B7B"/>
<path d="M102.638 40.4428L102.523 41.6207C102.486 41.9996 102.437 42.3703 102.388 42.7451C102.293 43.4906 102.174 44.2361 102.047 44.9775C101.801 46.4643 101.481 47.9429 101.112 49.4298C100.737 50.9451 100.283 52.4395 99.7512 53.9068C99.4683 54.6605 99.1731 55.4143 98.8205 56.1803C98.465 56.9839 98.054 57.7615 97.5904 58.5074C97.4797 58.701 97.3403 58.9193 97.205 59.1005C97.0697 59.2817 96.9385 59.5124 96.795 59.7018C96.6515 59.8913 96.4998 60.1137 96.3112 60.3073L96.0447 60.6121C95.9493 60.7245 95.848 60.8317 95.7412 60.9333C94.9194 61.7418 93.9562 62.3911 92.8998 62.8485C91.2792 63.5468 89.5594 63.9846 87.8033 64.1459C87.0038 64.2406 86.2124 64.2777 85.4375 64.2983C84.6626 64.3189 83.8877 64.2983 83.125 64.2571C82.3624 64.2159 81.608 64.15 80.8576 64.0594C80.1073 63.9688 79.3775 63.8494 78.582 63.6887L78.7132 59.3847C81.3313 58.9248 83.9191 58.3059 86.4626 57.5313C87.0283 57.3465 87.5839 57.132 88.1272 56.8888C88.5898 56.6927 89.032 56.4512 89.4475 56.168C89.6891 56.0218 89.8939 55.8217 90.0461 55.5831L90.165 55.3937C90.2201 55.3128 90.2707 55.2289 90.3167 55.1424C90.3752 55.0479 90.4286 54.9503 90.4766 54.85C90.5299 54.7429 90.5873 54.6441 90.6406 54.5246C91.1223 53.4682 91.5186 52.3746 91.8256 51.2544C92.1618 50.0435 92.4775 48.7831 92.7317 47.4775C92.9859 46.1719 93.2319 44.8539 93.4574 43.5236L93.7691 41.5219L94.052 39.5737L102.638 40.4428Z" fill="#407BFF"/>
<path opacity="0.2" d="M102.638 40.4428L102.523 41.6207C102.486 41.9996 102.437 42.3703 102.388 42.7451C102.293 43.4906 102.174 44.2361 102.047 44.9775C101.801 46.4643 101.481 47.9429 101.112 49.4298C100.737 50.9451 100.283 52.4395 99.7512 53.9068C99.4683 54.6605 99.1731 55.4143 98.8205 56.1803C98.465 56.9839 98.054 57.7615 97.5904 58.5074C97.4797 58.701 97.3403 58.9193 97.205 59.1005C97.0697 59.2817 96.9385 59.5124 96.795 59.7018C96.6515 59.8913 96.4998 60.1137 96.3112 60.3073L96.0447 60.6121C95.9493 60.7245 95.848 60.8317 95.7412 60.9333C94.9194 61.7418 93.9562 62.3911 92.8998 62.8485C91.2792 63.5468 89.5594 63.9846 87.8033 64.1459C87.0038 64.2406 86.2124 64.2777 85.4375 64.2983C84.6626 64.3189 83.8877 64.2983 83.125 64.2571C82.3624 64.2159 81.608 64.15 80.8576 64.0594C80.1073 63.9688 79.3775 63.8494 78.582 63.6887L78.7132 59.3847C81.3313 58.9248 83.9191 58.3059 86.4626 57.5313C87.0283 57.3465 87.5839 57.132 88.1272 56.8888C88.5898 56.6927 89.032 56.4512 89.4475 56.168C89.6891 56.0218 89.8939 55.8217 90.0461 55.5831L90.165 55.3937C90.2201 55.3128 90.2707 55.2289 90.3167 55.1424C90.3752 55.0479 90.4286 54.9503 90.4766 54.85C90.5299 54.7429 90.5873 54.6441 90.6406 54.5246C91.1223 53.4682 91.5186 52.3746 91.8256 51.2544C92.1618 50.0435 92.4775 48.7831 92.7317 47.4775C92.9859 46.1719 93.2319 44.8539 93.4574 43.5236L93.7691 41.5219L94.052 39.5737L102.638 40.4428Z" fill="black"/>
<path d="M78.4283 45.9165C80.4614 54.7216 81.6057 63.7101 81.8438 72.7458H105.85C105.981 69.7679 105.481 52.976 103.066 40.8464C102.633 38.6269 101.328 36.6766 99.4448 35.4364C97.5619 34.1961 95.2609 33.7708 93.0619 34.2565L92.947 34.2853C89.9498 34.969 85.6487 36.0728 83.1066 37.0407L83.0041 37.0819C79.4874 38.4554 77.5296 42.2354 78.4283 45.9165Z" fill="#407BFF"/>
<path opacity="0.2" d="M79.9902 53.6184C80.1788 54.7757 80.3716 56.0031 80.5479 57.2881C82.5118 55.2288 83.1351 48.9189 83.1351 48.9189L79.9902 53.6184Z" fill="black"/>
<path d="M60.0475 59.8089L54.5984 59.2982L54.418 63.8823C56.2535 64.3913 58.2186 63.8344 59.5186 62.4367L60.0475 59.8089Z" fill="#FF8B7B"/>
<path d="M52.0084 60.6492L50.2617 63.8L54.4357 63.8823L54.6161 59.2982L52.0084 60.6492V60.6492Z" fill="#FF8B7B"/>
<path d="M87.4366 43.8036C87.0594 44.5244 86.7232 45.1628 86.346 45.8218C85.9688 46.4808 85.6079 47.1233 85.2184 47.7617C84.4476 49.0467 83.6481 50.3071 82.8034 51.555C81.1077 54.1107 79.2289 56.5389 77.1821 58.8204C76.086 60.0487 74.8946 61.1877 73.619 62.2266C73.4591 62.3625 73.2705 62.4943 73.0942 62.6385C72.9179 62.7826 72.7621 62.8979 72.4997 63.0503C72.2373 63.2027 72.0159 63.3551 71.7781 63.4869C71.5403 63.6187 71.2942 63.7382 71.0523 63.8452C70.1479 64.2397 69.2014 64.5285 68.2314 64.706C66.5348 64.9933 64.8057 65.0322 63.098 64.8214C62.2982 64.7293 61.5042 64.5918 60.7199 64.4095C60.329 64.3189 59.9436 64.2159 59.5637 64.1006C59.1536 63.9853 58.8215 63.8576 58.3828 63.6887L59.0593 59.4382C61.6342 59.0881 64.4183 58.6392 66.3371 57.766C66.7631 57.5902 67.1643 57.359 67.5303 57.0782C67.6777 56.9763 67.815 56.8605 67.9403 56.7322C67.969 56.6952 68.0961 56.584 68.1904 56.4934C68.2847 56.4027 68.3954 56.3163 68.4979 56.2092C69.3756 55.3356 70.1972 54.407 70.958 53.429C72.6087 51.2899 74.151 49.0684 75.5789 46.7732C76.317 45.6076 77.0345 44.4214 77.752 43.2311L78.8099 41.4436L79.8308 39.6849L87.4366 43.8036Z" fill="#407BFF"/>
<path d="M80.8444 129.773H76.3588L74.0996 119.332H78.5893L80.8444 129.773V129.773Z" fill="#FF8B7B"/>
<path d="M76.1135 128.809H81.1568C81.3367 128.816 81.4914 128.94 81.5381 129.114L82.4237 133.126C82.4665 133.323 82.4168 133.53 82.2888 133.685C82.1608 133.841 81.9688 133.93 81.7677 133.925C80.0087 133.896 79.1518 133.793 76.9336 133.793C75.5682 133.793 73.8174 133.933 71.9355 133.933C70.0535 133.933 69.8034 132.063 70.5742 131.894C74.0348 131.132 74.2644 130.086 75.3837 129.085C75.5844 128.906 75.8446 128.807 76.1135 128.809Z" fill="#263238"/>
<g opacity="0.2">
<path d="M78.5973 119.336H74.1035L75.3582 125.119L79.7618 124.719L78.5973 119.336V119.336Z" fill="black"/>
</g>
<path d="M86.4604 20.3394C88.1004 24.5075 89.2403 26.8675 88.1578 29.8947C86.5178 34.4459 80.6996 34.9072 77.8705 31.3075C75.3284 28.066 73.1061 21.7933 76.3165 18.3459C77.746 16.792 79.8751 16.0931 81.9422 16.4993C84.0093 16.9056 85.7192 18.3588 86.4604 20.3394V20.3394Z" fill="#FF8B7B"/>
<path d="M78.5799 26.5832C77.9074 27.4894 77.3908 28.1772 77.3908 28.1772C77.3908 28.1772 76.0091 24.7298 76.538 23.1482C75.8656 21.8097 74.5084 23.7825 73.9959 21.1754C73.4834 18.5683 75.7016 15.7675 76.538 15.1868C76.6242 15.4906 76.6629 15.806 76.6528 16.1217C78.913 14.2793 81.7855 13.368 84.6891 13.5723C84.4464 13.9348 84.2919 14.3496 84.2381 14.7832C84.2381 14.7832 89.105 15.6069 90.2121 18.3747C89.8205 18.187 89.4074 18.0486 88.982 17.9628C89.8742 19.2478 90.2277 20.8336 89.966 22.378C89.6129 24.6304 89.4293 26.9062 89.4166 29.1863C89.4617 30.356 86.2677 32.5924 84.3201 30.2036C82.3725 27.8147 78.5799 26.5832 78.5799 26.5832Z" fill="#263238"/>
<path d="M80.6089 25.6854C80.8629 26.6563 80.7908 27.6842 80.4039 28.6097C79.8832 29.8453 78.813 29.5487 78.2841 28.4696C77.8044 27.5017 77.4969 25.706 78.3456 24.8452C79.1943 23.9844 80.2891 24.5198 80.6089 25.6854Z" fill="#FF8B7B"/>
<path d="M89.0408 72.7292C89.0408 72.7292 68.1955 80.3241 67.5846 90.3696C66.4529 108.875 73.985 123.525 73.985 123.525L80.8896 122.784C80.8896 122.784 79.6596 116.828 78.7453 100.065C77.5931 78.9979 113.187 100.559 105.856 72.7292H89.0408Z" fill="#407BFF"/>
<path opacity="0.5" d="M89.0408 72.7292C89.0408 72.7292 68.1955 80.3241 67.5846 90.3696C66.4529 108.875 73.985 123.525 73.985 123.525L80.8896 122.784C80.8896 122.784 79.6596 116.828 78.7453 100.065C77.5931 78.9979 113.187 100.559 105.856 72.7292H89.0408Z" fill="white"/>
<path d="M72.0749 120.971C72.0421 120.971 73.1738 124.052 73.1738 124.052L81.7841 123.204L81.3536 120.403L72.0749 120.971Z" fill="#407BFF"/>
<path d="M61.4599 130.288H56.9703L55.6582 119.843H60.1479L61.4599 130.288V130.288Z" fill="#FF8B7B"/>
<path d="M56.9353 128.805H61.8555C62.0386 128.803 62.1979 128.93 62.2369 129.11L63.1307 133.117C63.1836 133.316 63.1403 133.529 63.0137 133.691C62.887 133.853 62.692 133.946 62.487 133.941C60.7198 133.912 58.1613 133.814 55.9267 133.818C53.3272 133.818 52.8311 133.962 49.7764 133.966C47.9314 133.966 47.4188 132.1 48.1897 131.907C51.6994 131.132 52.8229 131.046 55.8529 129.164C56.1727 128.944 56.5481 128.819 56.9353 128.805Z" fill="#263238"/>
<path opacity="0.2" d="M55.6621 119.847L56.3755 125.535L60.8283 125.23L60.1518 119.847H55.6621V119.847Z" fill="black"/>
<path d="M81.8431 72.7292C81.8431 72.7292 47.6886 75.773 48.0577 93.0056C48.439 110.93 55.1058 123.019 55.1058 123.019H61.7727C61.7727 123.019 60.5099 113.719 60.7354 96.074C60.801 90.7898 71.4368 89.0434 81.8185 88.4256C90.7896 87.8902 99.1868 82.7542 102.672 74.422L103.389 72.7292H81.8431Z" fill="#407BFF"/>
<path opacity="0.5" d="M81.8431 72.7292C81.8431 72.7292 47.6886 75.773 48.0577 93.0056C48.439 110.93 55.1058 123.019 55.1058 123.019H61.7727C61.7727 123.019 60.5099 113.719 60.7354 96.074C60.801 90.7898 71.4368 89.0434 81.8185 88.4256C90.7896 87.8902 99.1868 82.7542 102.672 74.422L103.389 72.7292H81.8431Z" fill="white"/>
<path d="M53.5454 121.219C53.5167 121.219 54.6894 124.316 54.6894 124.316L62.7421 123.735L62.2706 120.935L53.5454 121.219Z" fill="#407BFF"/>
<path d="M90.8111 53.3632L86.4772 70.1387C85.369 74.4364 84.8097 78.8583 84.8125 83.2979V91.0946C84.8125 93.0634 86.2558 94.6614 88.0393 94.6614H110.254C112.038 94.6614 113.481 93.0634 113.481 91.0946V83.2979C113.479 78.8582 114.04 74.4363 115.15 70.1387L118.975 55.3113C119.566 53.0337 118.016 50.7808 115.871 50.7808H93.9108C92.4112 50.8282 91.1348 51.8916 90.8111 53.3632Z" fill="#263238"/>
<path d="M63.1815 86.539L63.9072 90.6989C64.2926 92.886 66.2074 94.6611 68.1878 94.6611H92.8831C94.8635 94.6611 96.1633 92.886 95.7779 90.6989L95.0521 86.539C94.6134 84.0472 92.4362 82.0291 90.1811 82.0291H66.4903C64.2188 82.0291 62.7469 84.0472 63.1815 86.539Z" fill="#263238"/>
<path d="M95.2614 98.8376H82.3254L81.0625 94.6613H96.5242L95.2614 98.8376V98.8376Z" fill="#407BFF"/>
<rect x="86.4824" y="98.8376" width="4.62089" height="31.0591" fill="#407BFF"/>
<path opacity="0.7" d="M91.1033 129.897H86.4824V99.5831L91.1033 100.057V129.897V129.897Z" fill="white"/>
<path opacity="0.7" d="M89.976 129.897H88.873V99.8262L89.976 99.9415V129.897V129.897Z" fill="white"/>
<path d="M99.4185 134.699H78.1632C77.909 134.697 77.6849 134.531 77.6068 134.288C77.5286 134.045 77.614 133.779 77.8188 133.628L81.1891 131.157C82.8094 129.965 84.7652 129.322 86.7736 129.32H90.8122C92.8192 129.322 94.7735 129.966 96.3926 131.157L99.767 133.628C99.9723 133.78 100.058 134.047 99.9784 134.29C99.8991 134.534 99.6734 134.699 99.4185 134.699V134.699Z" fill="#407BFF"/>
</svg>
