<svg width="140" height="140" viewBox="0 0 140 140" fill="none" xmlns="http://www.w3.org/2000/svg">
<path d="M100.713 27.3741V27.3741C99.2857 25.9458 99.2857 23.6362 100.713 22.2079L102.452 20.4755C103.885 19.0529 106.203 19.0529 107.637 20.4755V20.4755C109.059 21.9042 109.059 24.2085 107.637 25.6372L105.893 27.3741C104.46 28.7913 102.147 28.7913 100.713 27.3741Z" fill="#83FFA3"/>
<path opacity="0.4" d="M100.713 27.3741V27.3741C99.2857 25.9458 99.2857 23.6362 100.713 22.2079L102.452 20.4755C103.885 19.0529 106.203 19.0529 107.637 20.4755V20.4755C109.059 21.9042 109.059 24.2085 107.637 25.6372L105.893 27.3741C104.46 28.7913 102.147 28.7913 100.713 27.3741Z" fill="white"/>
<path d="M103.158 24.9487V24.9487C101.315 23.1073 101.315 20.1269 103.158 18.2855L106.564 14.8918C108.412 13.0551 111.403 13.0551 113.251 14.8918V14.8918C115.096 16.7321 115.096 19.7146 113.251 21.5549L109.836 24.9487C107.987 26.7746 105.007 26.7746 103.158 24.9487Z" fill="#83FFA3"/>
<path d="M107.906 20.2V20.2C104.755 17.0761 99.6629 17.0761 96.5117 20.2L107.906 31.5584C111.039 28.4159 111.039 23.3426 107.906 20.2Z" fill="#83FFA3"/>
<path d="M112.53 42.2239C112.148 42.2239 111.839 41.9157 111.839 41.5354C111.839 41.1552 112.148 40.8469 112.53 40.8469C119.423 40.8469 125.012 35.2783 125.012 28.4091C125.012 21.5399 119.423 15.9713 112.53 15.9713C112.27 15.9921 112.021 15.866 111.885 15.6451C111.749 15.4241 111.749 15.1458 111.885 14.9249C112.021 14.7039 112.27 14.5779 112.53 14.5987C117.541 14.5091 122.211 17.122 124.743 21.4325C127.275 25.743 127.275 31.0797 124.743 35.3901C122.211 39.7006 117.541 42.3135 112.53 42.2239V42.2239Z" fill="#83FFA3"/>
<path fill-rule="evenodd" clip-rule="evenodd" d="M113.563 61.0848L129.335 135.712L130.115 135.69L129.968 137.831H93.957L94.1353 135.205H96.5649L96.5337 135.69H107.416L119.644 100.393L111.454 61.6579L113.563 61.0848ZM127.106 135.712L119.973 101.894L108.24 135.712H127.106Z" fill="#83FFA3"/>
<path fill-rule="evenodd" clip-rule="evenodd" d="M35.0471 61.1071L50.8015 135.712H51.5816L51.4345 137.853H15.4277L15.6016 135.228H18.0356L18 135.712H28.8952L41.1233 100.415L32.9385 61.6801L35.0471 61.1071ZM48.5729 135.712L41.4402 101.894L29.6979 135.712H48.5729Z" fill="#83FFA3"/>
<path d="M120.758 98.1451L118.73 103.995H40.3906L42.4145 98.1451H120.758V98.1451Z" fill="#83FFA3"/>
<path d="M117.675 102.556L118.732 103.995H40.3925L39.3359 102.556H117.675V102.556Z" fill="#83FFA3"/>
<path opacity="0.2" d="M117.675 102.556L118.732 103.995H40.3925L39.3359 102.556H117.675V102.556Z" fill="black"/>
<path d="M105.072 89.1233H9.38642L8 87.7462L131.177 35.5341L132.559 36.9111L105.072 89.1233V89.1233Z" fill="#83FFA3"/>
<path opacity="0.4" d="M105.072 89.1233H9.38642L8 87.7462L131.177 35.5341L132.559 36.9111L105.072 89.1233V89.1233Z" fill="black"/>
<path d="M21.5605 58.6467L24.2156 53.5988L24.6104 53.805L21.9553 58.8529L21.5605 58.6467Z" fill="#83FFA3"/>
<path d="M19.4218 62.7042L20.6842 60.3042L21.079 60.5104L19.8166 62.9104L19.4218 62.7042Z" fill="#83FFA3"/>
<path d="M103.685 87.7462H8L35.4921 35.5341H131.177L103.685 87.7462V87.7462Z" fill="#83FFA3"/>
<path opacity="0.3" d="M94.0644 79.3731L26.3438 79.6129L46.3777 42.2728C62.4263 43.4189 86.4636 43.5255 112.757 43.0058L94.0644 79.3731Z" fill="black"/>
<path d="M93.0886 79.613H25.9609L45.246 42.9836C65.9219 43.7476 88.0645 43.259 111.915 42.6016C108.219 51.8322 101.514 65.2251 93.0886 79.613Z" fill="white"/>
<g opacity="0.6">
<path d="M37.7852 75.2952C44.0947 75.2597 50.4041 75.23 56.7136 75.2064L77.0195 75.1131L87.2149 75.0642C87.2991 75.0506 87.361 74.9782 87.361 74.8932C87.361 74.8082 87.2991 74.7357 87.2149 74.7222L68.2864 74.811L47.9805 74.8999L37.7852 74.9487C37.6892 74.9487 37.6113 75.0263 37.6113 75.122C37.6113 75.2176 37.6892 75.2952 37.7852 75.2952V75.2952Z" fill="#83FFA3"/>
<path d="M86.3817 75.6283C90.4265 67.9583 94.5085 60.3061 98.6277 52.6716C99.8164 50.4743 101.005 48.2769 102.194 46.0796C102.301 45.8841 102.002 45.7109 101.895 45.9019C97.7346 53.5334 93.6229 61.1856 89.5602 68.8586C88.3922 71.0589 87.2302 73.2577 86.0741 75.4551C85.9716 75.6505 86.2658 75.8238 86.3728 75.6283H86.3817Z" fill="#83FFA3"/>
<path d="M102.4 46.2396C96.0605 46.2752 89.7228 46.3048 83.3866 46.3285L62.8399 46.4217L52.6758 46.4706C52.5798 46.4706 52.502 46.5482 52.502 46.6439C52.502 46.7395 52.5798 46.8171 52.6758 46.8171C59.015 46.7816 65.3527 46.7519 71.6889 46.7283L92.2356 46.635L102.4 46.5861C102.496 46.5861 102.574 46.5085 102.574 46.4129C102.574 46.3172 102.496 46.2396 102.4 46.2396V46.2396Z" fill="#83FFA3"/>
<path d="M53.8725 45.6177C49.7891 53.3735 45.6625 61.1101 41.4928 68.8275C40.3041 71.0397 39.1064 73.2489 37.8997 75.4551C37.7927 75.6505 38.0914 75.8238 38.1984 75.6283C42.3948 67.9287 46.5556 60.1936 50.6807 52.4229C51.8516 50.2137 53.0196 48.0031 54.1846 45.7909C54.2916 45.5954 53.9929 45.4222 53.8859 45.6177H53.8725Z" fill="#83FFA3"/>
<path d="M60.6212 71.5905L67.5889 57.9L69.4657 54.2219C69.5683 54.0265 69.2696 53.8488 69.1671 54.0487L61.9764 68.1301L60.3047 71.395C60.2066 71.5949 60.5053 71.7682 60.6033 71.5683L60.6212 71.5905Z" fill="#83FFA3"/>
<path d="M44.0838 71.6482L48.096 63.7857C48.194 63.5858 47.8954 63.4126 47.7973 63.608L43.7851 71.4749C43.6871 71.6748 43.9857 71.8481 44.0838 71.6482Z" fill="#83FFA3"/>
<path d="M83.6401 71.5904C86.9791 65.5892 89.9258 59.3791 93.0909 53.2846C93.8666 51.7921 94.6512 50.2995 95.4715 48.8425C95.5784 48.6471 95.2798 48.4738 95.1728 48.6693C91.8338 54.6661 88.8826 60.8806 85.7219 66.9707C84.9463 68.4676 84.1617 69.9557 83.3414 71.4127C83.2344 71.6037 83.5286 71.7814 83.6401 71.586V71.5904Z" fill="#83FFA3"/>
<path d="M65.3218 71.5461C68.3532 65.607 71.4158 59.6768 74.4382 53.7333L75.4636 51.7166L76.0164 50.6283L76.2883 50.0864C76.3641 49.9398 76.48 49.5311 76.6316 49.4512C76.8548 49.42 77.0814 49.42 77.3047 49.4512H78.1562H79.9795C82.6929 49.4245 85.4048 49.4023 88.1152 49.3846C90.8569 49.3846 93.594 49.3623 96.3357 49.4112C96.4199 49.3976 96.4818 49.3252 96.4818 49.2402C96.4818 49.1552 96.4199 49.0827 96.3357 49.0692C89.7245 48.9537 83.1089 49.0692 76.5023 49.1447C76.4403 49.1439 76.3825 49.176 76.3507 49.2291C72.6149 56.6429 68.799 64.0168 65.0231 71.4084C64.9205 71.6083 65.2192 71.7815 65.3218 71.5816V71.5461Z" fill="#83FFA3"/>
<path d="M83.6663 71.4616C82.0392 65.6202 80.1 59.8677 78.2366 54.1019C77.7105 52.4791 77.1875 50.8577 76.6674 49.2378C76.6005 49.0246 76.2661 49.1135 76.333 49.3267C78.2187 55.2391 80.198 61.1248 82.0124 67.0595C82.4582 68.552 82.904 70.049 83.3498 71.5548C83.3795 71.642 83.4724 71.6908 83.5613 71.666C83.6502 71.6411 83.7042 71.5514 83.6842 71.4616H83.6663Z" fill="#83FFA3"/>
<path d="M95.3766 49.0825C91.6943 52.1919 87.7446 54.946 83.8082 57.709C79.5464 60.6985 75.249 63.6347 71.063 66.722C68.9945 68.2456 66.9483 69.8048 64.9868 71.4617C64.8174 71.6038 65.0626 71.8481 65.232 71.706C68.9856 68.5388 73.0066 65.6959 77.0232 62.8707C81.2538 59.8945 85.529 56.9761 89.7016 53.9155C91.7166 52.4407 93.7138 50.9304 95.6218 49.3268C95.7912 49.1802 95.546 48.9403 95.3766 49.0825V49.0825Z" fill="#83FFA3"/>
<path d="M64.6754 71.4972C69.7753 71.6438 74.8752 71.7015 79.9751 71.706C81.2055 71.706 82.4403 71.706 83.6707 71.6793C83.7549 71.6657 83.8168 71.5933 83.8168 71.5083C83.8168 71.4233 83.7549 71.3508 83.6707 71.3373C78.5574 71.435 73.4174 71.3373 68.3175 71.2396C67.105 71.2129 65.888 71.1907 64.6754 71.1552C64.5912 71.1687 64.5293 71.2412 64.5293 71.3262C64.5293 71.4112 64.5912 71.4836 64.6754 71.4972V71.4972Z" fill="#83FFA3"/>
<path d="M57.6069 71.7059C60.8568 65.678 63.848 59.5257 66.9998 53.4401C67.7755 51.9357 68.563 50.4372 69.3625 48.9447C69.465 48.7493 69.1664 48.576 69.0638 48.7715C65.814 54.7994 62.8227 60.9516 59.6709 67.0373C58.8953 68.5432 58.1151 70.0446 57.3082 71.5327C57.2057 71.7281 57.5044 71.9014 57.6069 71.7059Z" fill="#83FFA3"/>
<path d="M48.0056 71.6304C50.0385 67.6503 52.0743 63.6717 54.113 59.6946C55.1294 57.7045 56.1458 55.7145 57.1623 53.7244C57.6616 52.7516 58.1564 51.7743 58.6512 50.8015C58.8117 50.4817 59.0569 49.6732 59.4046 49.5355C59.7 49.4896 60.0008 49.4896 60.2962 49.5355H61.2859C63.8715 49.4911 66.4615 49.4422 69.0516 49.5355C69.27 49.5355 69.27 49.1979 69.0516 49.189C65.7661 49.0869 62.4806 49.189 59.1995 49.2379C59.1375 49.2371 59.0798 49.2693 59.048 49.3223C55.2988 56.7273 51.4962 64.11 47.7203 71.5016C47.6178 71.6971 47.9165 71.8747 48.019 71.6748L48.0056 71.6304Z" fill="#83FFA3"/>
<path d="M57.6309 71.6215C58.2952 64.2076 58.6696 56.776 59.3561 49.3667C59.3784 49.1445 59.0352 49.1445 59.0129 49.3667C58.3264 56.776 57.9519 64.2076 57.2832 71.6215C57.2832 71.8391 57.6086 71.8391 57.6309 71.6215Z" fill="#83FFA3"/>
<path d="M69.102 49.1935C63.5741 55.137 57.8323 60.8762 52.2198 66.7353C50.6892 68.3255 49.1735 69.9291 47.6727 71.546C47.5211 71.7059 47.7663 71.9503 47.9178 71.7859C53.4769 65.7891 59.2633 60.0011 64.9293 54.102C66.4153 52.5561 67.8879 51.0014 69.3472 49.4378C69.4987 49.2779 69.2536 49.0336 69.102 49.1935V49.1935Z" fill="#83FFA3"/>
<path d="M47.5793 71.5905C50.8648 71.7504 54.1681 71.8925 57.4581 71.7992C57.681 71.7992 57.681 71.4483 57.4581 71.4572C54.1681 71.546 50.8648 71.4083 47.5793 71.2484C47.3564 71.2484 47.3564 71.5816 47.5793 71.5905Z" fill="#83FFA3"/>
<path d="M52.8794 51.1879C52.7128 51.4624 52.6631 51.7918 52.7412 52.103C52.8257 52.3673 53.0417 52.569 53.3118 52.6361C53.9726 52.7437 54.647 52.5496 55.1485 52.1075C55.6706 51.7278 55.9656 51.1116 55.9331 50.4683C55.8571 49.9282 55.3734 49.5395 54.8275 49.5799C54.4465 49.6231 54.0937 49.8013 53.8334 50.0819C53.6889 50.2148 53.5519 50.3556 53.4233 50.5039C53.2995 50.6276 53.2091 50.7803 53.1602 50.9481C53.1201 51.1657 53.4545 51.259 53.4946 51.0414C53.5347 50.8237 53.7844 50.5971 53.9404 50.4417C54.1155 50.2455 54.3275 50.0855 54.5645 49.9708C54.7538 49.8865 54.9703 49.8869 55.1593 49.9717C55.3484 50.0566 55.4921 50.2179 55.5542 50.415C55.6314 50.8864 55.4636 51.3647 55.1084 51.6855C54.7315 52.0765 54.2241 52.3166 53.6818 52.3606C53.4595 52.3921 53.2367 52.3063 53.0934 52.1341C52.9807 51.8923 53.0027 51.6095 53.1513 51.3878C53.2539 51.1924 52.9552 51.0191 52.8526 51.2146L52.8794 51.1879Z" fill="#83FFA3"/>
</g>
<path opacity="0.2" d="M131.177 35.5341L103.699 87.7463H8L35.4921 35.5341H62.9218L48.9417 41.9174H48.9105C41.7778 44.5071 36.0761 48.4739 33.1606 53.4268C26.4737 64.7719 36.9811 76.9698 56.6094 80.71C76.2377 84.4503 97.5556 78.2491 104.229 66.9041C105.622 64.6357 106.316 62.0102 106.226 59.3525L107.666 35.5074L131.177 35.5341Z" fill="black"/>
<path d="M44.4559 26.7603C43.2975 28.7885 42.1212 30.8922 40.9986 32.9737C39.8759 35.0552 38.7623 37.1544 37.8409 39.2493C37.5994 39.773 37.3936 40.2922 37.1789 40.8115C37.1566 40.8603 37.1789 40.8115 37.1789 40.8115V40.8115V40.8115C37.1789 40.8115 37.1789 40.847 37.1521 40.8825C37.1363 41.0152 37.1363 41.1492 37.1521 41.2819C37.2351 41.7142 37.3719 42.1346 37.5591 42.5335C37.7649 42.9773 38.0064 43.4699 38.2792 43.9448C39.4827 45.9207 40.8185 47.8142 42.2778 49.6124L40.5334 51.4542C38.4575 49.9437 36.5873 48.1729 34.9695 46.1861C34.0312 45.0643 33.3054 43.7832 32.8271 42.4048C32.6853 41.9536 32.5983 41.4873 32.5676 41.0156C32.5526 40.7373 32.5615 40.4581 32.5945 40.1813C32.6099 40.0321 32.6338 39.8839 32.666 39.7374C32.666 39.662 32.7063 39.5821 32.7242 39.5067L32.7823 39.3069C32.9881 38.6945 33.1849 38.0731 33.4085 37.4784C34.285 35.1463 35.2853 32.8619 36.4052 30.6348C37.5278 28.4157 38.6952 26.2898 39.9833 24.1506L44.4559 26.7603Z" fill="#FFC3BD"/>
<path d="M41.6302 49.0266L44.0096 49.7989L42.0103 53.1452C42.0103 53.1452 40.2571 52.3597 39.9082 50.7664L41.6302 49.0266Z" fill="#FFC3BD"/>
<path d="M47.2665 51.0947L44.9452 53.6733L42.0156 53.1496L44.0149 49.8032L47.2665 51.0947V51.0947Z" fill="#FFC3BD"/>
<path d="M58.3573 11.1869C58.2902 11.4487 58.3573 11.6973 58.5497 11.7416C58.742 11.786 58.9164 11.6085 58.9969 11.3466C59.0774 11.0848 58.9969 10.8318 58.8046 10.7874C58.6123 10.7431 58.4244 10.9206 58.3573 11.1869Z" fill="#263238"/>
<path d="M58.3528 11.6927C58.4611 12.5764 58.6914 13.441 59.0371 14.2624C58.5994 14.4335 58.1077 14.4026 57.6953 14.1781L58.3528 11.6927Z" fill="#ED847E"/>
<path d="M57.7685 9.47823C57.7098 9.45283 57.6719 9.39532 57.6719 9.33177C57.6719 9.26822 57.7098 9.21071 57.7685 9.18531C58.2459 8.98533 58.7915 9.02837 59.2311 9.3007C59.3023 9.35399 59.3198 9.4528 59.2714 9.52705C59.2192 9.59769 59.1195 9.61353 59.0477 9.56255V9.56255C58.6953 9.35274 58.263 9.32305 57.8848 9.48266C57.847 9.49654 57.8052 9.49495 57.7685 9.47823V9.47823Z" fill="#263238"/>
<path d="M49.2375 12.2166C49.725 14.6797 50.2125 19.1933 48.4727 20.8355C48.4727 20.8355 49.1525 23.3386 53.7638 23.3386C58.8403 23.3386 56.1924 20.8355 56.1924 20.8355C53.4194 20.183 53.5089 18.1415 53.9561 16.2286L49.2375 12.2166Z" fill="#FFC3BD"/>
<path d="M47.6234 22.1047C47.3864 20.7733 47.1225 19.2643 47.9991 18.8782C48.9608 18.4344 54.0148 18.4078 55.6474 19.5262C57.2799 20.6446 56.5419 23.2187 56.5419 23.2187L47.6234 22.1047Z" fill="#263238"/>
<path opacity="0.6" d="M47.6234 22.1047C47.3864 20.7733 47.1225 19.2643 47.9991 18.8782C48.9608 18.4344 54.0148 18.4078 55.6474 19.5262C57.2799 20.6446 56.5419 23.2187 56.5419 23.2187L47.6234 22.1047Z" fill="#83FFA3"/>
<path fill-rule="evenodd" clip-rule="evenodd" d="M32.2725 135.352C32.0083 135.54 31.7034 135.563 31.4272 135.418C31.1372 135.327 30.8551 135.189 30.5863 135.007C30.5566 134.99 30.5369 134.949 30.5371 134.902C30.54 134.856 30.5608 134.815 30.5908 134.798C30.6355 134.766 31.6955 134.139 32.1428 134.459C32.244 134.524 32.3208 134.65 32.353 134.805C32.4105 134.993 32.378 135.215 32.2725 135.352ZM32.0763 134.674L31.9824 134.629V134.661C31.5899 134.617 31.1956 134.702 30.8285 134.909C31.3115 135.17 31.9869 135.398 32.1703 135.17C32.1971 135.15 32.2418 135.085 32.1971 134.876C32.1791 134.786 32.135 134.713 32.0763 134.674Z" fill="#83FFA3"/>
<path fill-rule="evenodd" clip-rule="evenodd" d="M30.6268 134.812H30.591C30.5763 134.809 30.5624 134.803 30.5508 134.794C30.5289 134.774 30.5203 134.743 30.5284 134.714C30.5288 134.713 30.5296 134.711 30.5306 134.707C30.5609 134.614 30.8471 133.735 31.2798 133.511C31.3901 133.453 31.5198 133.444 31.6376 133.485C31.7596 133.51 31.8461 133.618 31.8434 133.742C31.8344 134.124 31.0115 134.701 30.6268 134.812ZM31.5835 133.618H31.5612C31.4926 133.599 31.4197 133.606 31.3554 133.636C31.058 133.883 30.8428 134.214 30.7382 134.585C31.1363 134.399 31.6819 133.946 31.6819 133.72C31.6819 133.698 31.6819 133.649 31.5835 133.618Z" fill="#83FFA3"/>
<path fill-rule="evenodd" clip-rule="evenodd" d="M57.4528 136.709C57.3096 136.978 56.9026 137.065 56.4554 137.065C56.112 137.061 55.7694 137.017 55.4311 136.934C55.3989 136.922 55.3745 136.886 55.3685 136.84C55.3623 136.793 55.3785 136.745 55.4088 136.721C55.449 136.684 56.6343 135.74 57.1978 135.953C57.3051 135.987 57.3974 136.082 57.4528 136.215C57.5282 136.363 57.5282 136.561 57.4528 136.709ZM57.1482 136.146C57.0963 136.136 57.0436 136.136 56.9917 136.146H56.9783C56.5138 136.224 56.0644 136.426 55.6544 136.74C56.285 136.865 57.1438 136.859 57.3048 136.553C57.3406 136.509 57.3629 136.44 57.3048 136.303C57.2699 136.223 57.2134 136.167 57.1482 136.146Z" fill="#83FFA3"/>
<path fill-rule="evenodd" clip-rule="evenodd" d="M55.4642 136.64H55.4329C55.4164 136.644 55.3994 136.642 55.3837 136.636C55.3602 136.618 55.3481 136.589 55.3524 136.561C55.3524 136.525 55.4284 135.615 55.8757 135.265C55.9993 135.16 56.1612 135.11 56.323 135.127C56.5421 135.149 56.6226 135.26 56.6226 135.349C56.6853 135.753 55.8712 136.458 55.4642 136.64ZM56.3051 135.273H56.2604C56.1574 135.274 56.0579 135.31 55.9786 135.376C55.7261 135.668 55.57 136.031 55.5313 136.414C55.9517 136.161 56.5019 135.589 56.4661 135.362C56.4659 135.361 56.4657 135.36 56.4654 135.359C56.4604 135.338 56.4456 135.273 56.3051 135.273Z" fill="#83FFA3"/>
<path d="M51.6973 136.56H55.092L55.4275 128.758H52.0372L51.6973 136.56V136.56Z" fill="#FFC3BD"/>
<path d="M26.8203 133.915L30.1345 134.63L33.4667 127.365L30.148 126.65L26.8203 133.915V133.915Z" fill="#FFC3BD"/>
<path d="M30.4569 134.297L26.7267 133.498C26.5912 133.469 26.4535 133.537 26.3958 133.662L25.1032 136.445C25.0402 136.583 25.0441 136.742 25.1138 136.877C25.1835 137.012 25.3113 137.108 25.461 137.137C26.767 137.395 27.4155 137.453 29.0391 137.808C30.0499 138.025 32.3265 138.575 33.7175 138.873C35.1085 139.17 35.5915 137.843 35.0593 137.599C32.6262 136.494 31.6109 135.522 30.9489 134.617C30.8302 134.454 30.655 134.34 30.4569 134.297Z" fill="#263238"/>
<path d="M55.0704 136.17H51.3626C51.2239 136.169 51.1041 136.266 51.0764 136.401L50.4055 139.392C50.371 139.539 50.4065 139.693 50.5018 139.81C50.597 139.927 50.7414 139.994 50.893 139.991C52.2348 139.969 54.1625 139.894 55.8442 139.894C57.8077 139.894 59.5028 140 61.8107 140C63.2017 140 63.5998 138.602 63.0049 138.473C60.3526 137.896 58.1834 137.834 55.8889 136.432C55.6454 136.272 55.3623 136.181 55.0704 136.17Z" fill="#263238"/>
<path d="M61.8381 24.9052C62.9428 27.3772 64.1505 29.9158 65.4162 32.3435C66.0469 33.5596 66.7043 34.7579 67.3842 35.894C68.0415 37.017 68.7674 38.0989 69.5579 39.1339L69.8441 39.4889C69.9157 39.5555 69.8441 39.5244 69.956 39.6043C70.1344 39.7594 70.326 39.8989 70.5285 40.0215C71.0653 40.3464 71.6192 40.6427 72.1878 40.9092C73.3865 41.4817 74.6612 42.032 75.9538 42.5513C78.5345 43.5942 81.1912 44.5928 83.8301 45.5914L83.186 48.0413C80.3228 47.5851 77.4861 46.9777 74.688 46.2216C73.2836 45.8222 71.8792 45.4139 70.4614 44.8902C69.7155 44.6168 68.9866 44.2997 68.2787 43.9404C67.8583 43.7241 67.4559 43.4748 67.0756 43.1948C66.8329 43.0138 66.6055 42.8134 66.3957 42.5957L65.9798 42.1518C64.9587 41.0064 64.0271 39.7853 63.1933 38.4992C62.3659 37.261 61.6189 35.9961 60.9033 34.7179C59.4893 32.1734 58.2201 29.5522 57.1016 26.8668L61.8381 24.9052Z" fill="#FFC3BD"/>
<path d="M41.3466 21.5988C38.1665 22.3222 32.8262 37.9978 32.8262 37.9978L38.0234 39.711C38.0234 39.711 43.328 31.9131 45.1304 28.1717C47.0134 24.2173 44.6027 20.8577 41.3466 21.5988Z" fill="#83FFA3"/>
<path opacity="0.5" d="M41.3466 21.5988C38.1665 22.3222 32.8262 37.9978 32.8262 37.9978L38.0234 39.711C38.0234 39.711 43.328 31.9131 45.1304 28.1717C47.0134 24.2173 44.6027 20.8577 41.3466 21.5988Z" fill="black"/>
<path d="M38.9288 38.9432C38.9288 38.9432 33.8345 37.9801 32.6671 37.2611C32.2601 37.8469 31.7726 39.9684 32.1036 40.5942C32.4345 41.2199 37.18 42.1209 37.8241 41.7525C38.4681 41.3842 38.9288 38.9432 38.9288 38.9432Z" fill="#263238"/>
<path opacity="0.6" d="M38.9288 38.9432C38.9288 38.9432 33.8345 37.9801 32.6671 37.2611C32.2601 37.8469 31.7726 39.9684 32.1036 40.5942C32.4345 41.2199 37.18 42.1209 37.8241 41.7525C38.4681 41.3842 38.9288 38.9432 38.9288 38.9432Z" fill="#83FFA3"/>
<path opacity="0.3" d="M43.4098 27.1643C42.4392 28.1273 41.5581 30.8612 41.5312 34.3363C42.6539 32.5611 43.8123 30.6571 44.6219 29.1348C44.2372 27.7634 43.8078 26.7826 43.4098 27.1643Z" fill="black"/>
<path d="M60.3654 21.7719C60.3654 21.7719 63.9793 25.8195 60.5666 50.8862H42.4121C42.2869 48.1212 44.0357 34.6292 41.3477 21.5944C43.355 21.2097 45.3854 20.9547 47.426 20.831C49.9971 20.6844 52.5746 20.6844 55.1458 20.831C56.9077 21.0093 58.6528 21.3239 60.3654 21.7719Z" fill="#83FFA3"/>
<path opacity="0.5" d="M60.3654 21.7719C60.3654 21.7719 63.9793 25.8195 60.5666 50.8862H42.4121C42.2869 48.1212 44.0357 34.6292 41.3477 21.5944C43.355 21.2097 45.3854 20.9547 47.426 20.831C49.9971 20.6844 52.5746 20.6844 55.1458 20.831C56.9077 21.0093 58.6528 21.3239 60.3654 21.7719Z" fill="black"/>
<path opacity="0.3" d="M57.6738 29.7783C58.0182 33.4354 60.3574 38.0777 61.726 40.1814C61.905 37.767 61.9989 35.6633 62.0257 33.8259L57.6738 29.7783Z" fill="black"/>
<path d="M55.8702 24.3814C53.683 28.4867 65.1017 41.8367 65.1017 41.8367L69.0913 37.8202C69.0913 37.8202 63.912 28.8329 62.6954 24.8475C61.1926 19.9211 57.534 21.257 55.8702 24.3814Z" fill="#83FFA3"/>
<path opacity="0.5" d="M55.8702 24.3814C53.683 28.4867 65.1017 41.8367 65.1017 41.8367L69.0913 37.8202C69.0913 37.8202 63.912 28.8329 62.6954 24.8475C61.1926 19.9211 57.534 21.257 55.8702 24.3814Z" fill="black"/>
<path d="M68.9303 37.0258C68.9303 37.0258 65.4685 40.8559 64.252 41.4639C64.5471 42.1119 66.117 43.6342 66.8371 43.683C67.5572 43.7318 70.7775 40.1591 70.791 39.4224C70.8044 38.6856 68.9303 37.0258 68.9303 37.0258Z" fill="#263238"/>
<path opacity="0.6" d="M68.9303 37.0258C68.9303 37.0258 65.4685 40.8559 64.252 41.4639C64.5471 42.1119 66.117 43.6342 66.8371 43.683C67.5572 43.7318 70.7775 40.1591 70.791 39.4224C70.8044 38.6856 68.9303 37.0258 68.9303 37.0258Z" fill="#83FFA3"/>
<path d="M83.0456 45.6358L86.333 44.2289L87.3572 47.7794C87.3572 47.7794 84.8481 49.4082 82.8398 47.9836L83.0456 45.6358Z" fill="#FFC3BD"/>
<path d="M90.0021 45.911V45.911C89.8944 45.9822 89.7491 45.9545 89.6756 45.8489L86.0259 40.4787C85.9902 40.4277 85.9768 40.3646 85.9885 40.3036C86.0003 40.2427 86.0364 40.189 86.0885 40.1547V40.1547C86.1399 40.1193 86.2035 40.106 86.2649 40.1177C86.3264 40.1293 86.3805 40.1651 86.415 40.2169L90.0647 45.587C90.1004 45.638 90.1138 45.7011 90.102 45.7621C90.0903 45.823 90.0542 45.8767 90.0021 45.911V45.911Z" fill="#263238"/>
<path d="M89.8003 44.4908L91.245 46.6122L87.3582 47.7661L86.334 44.2245L89.8003 44.4908V44.4908Z" fill="#FFC3BD"/>
<path opacity="0.2" d="M55.4285 128.763L55.2586 132.784H51.8594L52.0338 128.763H55.4285V128.763Z" fill="black"/>
<path opacity="0.2" d="M30.1472 126.654L33.4659 127.365L31.7484 131.11L28.4297 130.396L30.1472 126.654V126.654Z" fill="black"/>
<path d="M49.6572 8.37298C49.0221 11.6572 48.4809 13.5479 49.6974 15.6249C51.5268 18.7316 55.9278 18.2878 57.538 15.2654C58.9916 12.5404 59.7743 7.63181 56.9297 5.53256C55.6549 4.58595 53.9769 4.36198 52.4953 4.94065C51.0137 5.51932 49.9398 6.81809 49.6572 8.37298V8.37298Z" fill="#FFC3BD"/>
<path d="M48.3519 6.74873C50.7448 5.97206 55.28 4.29887 56.8813 8.12012C58.4825 11.9414 51.9613 15.9313 50.302 15.9357C48.9691 15.949 45.722 7.63636 48.3519 6.74873Z" fill="#263238"/>
<path d="M53.3345 8.35976C58.0218 10.9117 62.2798 7.24134 60.3789 3.09167C58.478 -1.05801 54.3229 -0.458862 55.6155 1.56494C56.9081 3.58874 53.3345 0.521972 50.8656 1.4673C49.1347 2.12859 51.3799 3.20706 51.5902 3.98817C51.8004 4.76929 47.0594 4.79148 46.4287 5.96315C45.7981 7.13483 48.0747 9.57582 49.242 9.19413C50.4094 8.81245 52.507 7.90263 53.3345 8.35976Z" fill="#263238"/>
<path d="M54.6881 10.3258C54.5335 11.1424 54.6562 11.9868 55.037 12.7268C55.5424 13.6943 56.4191 13.4059 56.7992 12.4872C57.1436 11.6572 57.2912 10.1571 56.5309 9.49585C55.7705 8.83456 54.8849 9.34495 54.6881 10.3258Z" fill="#FFC3BD"/>
<path d="M54.1267 50.8861C54.1267 50.8861 50.2758 76.6274 48.1602 86.2671C45.8434 96.8299 33.4631 130.68 33.4631 130.68L27.3848 129.375C27.3848 129.375 36.6566 97.6821 37.976 87.2125C39.4117 75.8641 42.4129 50.8728 42.4129 50.8728L54.1267 50.8861Z" fill="#263238"/>
<path d="M34.9156 128.669C34.9424 128.669 33.784 130.848 33.784 130.848L26.9453 129.379L27.5223 127.342L34.9156 128.669Z" fill="#83FFA3"/>
<path opacity="0.3" d="M51.6919 60.0554C47.2193 60.9208 47.7068 77.4042 48.2435 85.881C49.5272 79.8895 51.4101 68.3592 52.6938 60.1752C52.3829 60.0246 52.03 59.9824 51.6919 60.0554V60.0554Z" fill="black"/>
<path d="M60.5588 50.8862C60.5588 50.8862 61.0061 76.0683 60.6572 86.3382C60.2815 97.0209 56.5335 132.002 56.5335 132.002H50.7727C50.7727 132.002 50.558 97.6467 50.3031 87.1549C50.0258 75.7177 48.6348 50.8862 48.6348 50.8862L60.5588 50.8862Z" fill="#263238"/>
<path d="M57.6268 129.73C57.6536 129.73 57.3003 132.1 57.3003 132.1H50.305L50.1172 129.988L57.6268 129.73Z" fill="#83FFA3"/>
</svg>
